<svg xmlns="http://www.w3.org/2000/svg" style='display: none;'>

    <symbol id='logo-dark' viewBox="0 0 48 32">
        <circle cx="16" cy="16" r="16" fill="#316099"/>
        <circle cx="32" cy="16" r="15" fill="white" stroke="#316099" stroke-width="2"/>
        <path d="M39.3 22L34.38 8H30.96L26.06 22H29.04L29.88 19.48H35.46L36.3 22H39.3ZM32.68 11.18L34.6 16.9H30.76L32.68 11.18Z" fill="#316099"/>
    </symbol>

    <symbol id='logo-light' viewBox="0 0 48 32">
        <circle cx="16" cy="16" r="16" fill="#98C3E8"/>
        <circle cx="32" cy="16" r="15" fill="white" stroke="#316099" stroke-width="2"/>
        <path d="M38.3 23L33.38 9H29.96L25.06 23H28.04L28.88 20.48H34.46L35.3 23H38.3ZM31.68 12.18L33.6 17.9H29.76L31.68 12.18Z" fill="#316099"/>
    </symbol>

    <symbol id='menu' viewBox="0 0 24 16">
        <path d="M0 16H24V13.3333H0V16ZM0 9.33333H24V6.66667H0V9.33333ZM0 0V2.66667H24V0H0Z"/>
    </symbol>

    <symbol id='link-arrow' viewBox="0 0 16 16">
        <path d="M8 0L6.59 1.41L12.17 7H0V9H12.17L6.59 14.59L8 16L16 8L8 0Z" fill="#5A98D0"/>
    </symbol>

</svg>