<svg xmlns="http://www.w3.org/2000/svg" style='display: none;'>

    <symbol id='logo-dark' viewBox="0 0 48 32">
        <circle cx="16" cy="16" r="16" fill="#316099"/>
        <circle cx="32" cy="16" r="15" fill="white" stroke="#316099" stroke-width="2"/>
        <path d="M39.3 22L34.38 8H30.96L26.06 22H29.04L29.88 19.48H35.46L36.3 22H39.3ZM32.68 11.18L34.6 16.9H30.76L32.68 11.18Z" fill="#316099"/>
    </symbol>

    <symbol id='logo-light' viewBox="0 0 48 32">
        <circle cx="16" cy="16" r="16" fill="#98C3E8"/>
        <circle cx="32" cy="16" r="15" fill="white" stroke="#316099" stroke-width="2"/>
        <path d="M38.3 23L33.38 9H29.96L25.06 23H28.04L28.88 20.48H34.46L35.3 23H38.3ZM31.68 12.18L33.6 17.9H29.76L31.68 12.18Z" fill="#316099"/>
    </symbol>

    <symbol id='menu' viewBox="0 0 24 16">
        <path d="M0 16H24V13.3333H0V16ZM0 9.33333H24V6.66667H0V9.33333ZM0 0V2.66667H24V0H0Z"/>
    </symbol>

    <symbol id='link-arrow' viewBox="0 0 16 16">
        <path d="M8 0L6.59 1.41L12.17 7H0V9H12.17L6.59 14.59L8 16L16 8L8 0Z" fill="#5A98D0"/>
    </symbol>

	<symbol id="house" viewBox="0 0 41 34">
		<path d="M16.5 34V22H24.5V34H34.5V18H40.5L20.5 0L0.5 18H6.5V34H16.5Z" fill="#5A98D0"/>
	</symbol>

	<symbol id="snowflake" viewBox="0 0 20 20">
		<path d="M20 9.00007H15.83L19.07 5.76001L17.66 4.33998L13 9.00007H11V7.00006L15.66 2.33998L14.24 0.930071L11 4.16999V0H9V4.16999L5.76 0.930071L4.34 2.33998L9 7.00006V9.00007H7L2.34 4.33998L0.93 5.76001L4.17 9.00007H0V11.0001H4.17L0.93 14.24L2.34 15.66L7 11.0001H9V13.0001L4.34 17.66L5.76 19.0701L9 15.83V20H11V15.83L14.24 19.0701L15.66 17.66L11 13.0001V11.0001H13L17.66 15.66L19.07 14.24L15.83 11.0001H20V9.00007Z" fill="white"/>
	</symbol>

	<symbol id="camera" viewBox="0 0 23 11">
		<path d="M16.332 0H0V10.21H16.332V0Z" fill="white"/>
		<path d="M20.734 3L17.129 4.02595V6.16405L20.734 7.19H22.041V3H20.734Z" fill="white"/>
	</symbol>

	<symbol id="lock" viewBox="0 0 16 21">
		<path d="M14 6.99964H13V4.99992C13 2.23997 10.76 0 8 0C5.24 0 3 2.23997 3 4.99992V6.99964H2C0.9 6.99964 0 7.89958 0 8.9995V19.0001C0 20.1001 0.9 21 2 21H14C15.1 21 16 20.1001 16 19.0001V8.9995C16 7.89958 15.1 6.99964 14 6.99964ZM8 16.0003C6.9 16.0003 6 15.1004 6 14.0005C6 12.8992 6.9 11.9993 8 11.9993C9.1 11.9993 10 12.8992 10 14.0005C10 15.1004 9.1 16.0003 8 16.0003ZM11.1 6.99964H4.9V4.99992C4.9 3.2899 6.29 1.89999 8 1.89999C9.71 1.89999 11.1 3.2899 11.1 4.99992V6.99964Z" fill="white"/>
	</symbol>

	<symbol id="lamp" viewBox="0 0 18 25">
		<path d="M18 8.99969C18 4.00001 14 0 9 0C4 0 0 4.00001 0 8.99969C0 12.0995 1.6 14.9006 4 16.5005V19.0004C4 20.3003 4.8 21.4002 6 21.8002V22.0002C6 23.7001 7.3 25 9 25C10.7 25 12 23.7001 12 22.0002V21.8002C13.2 21.4002 14 20.3003 14 19.0004V16.5005C16.4 14.9006 18 12.0995 18 8.99969ZM2 8.99969C2 5.10007 5.1 2 9 2C12.9 2 16 5.10007 16 8.99969C16 12.4995 13.4 15.4006 10 15.9006V13.3994L11.7 11.6995C12.1 11.2995 12.1 10.6996 11.7 10.2996C11.3 9.89963 10.7 9.89963 10.3 10.2996L9 11.5995L7.7 10.2996C7.3 9.89963 6.7 9.89963 6.3 10.2996C5.9 10.6996 5.9 11.2995 6.3 11.6995L8 13.3994V15.9006C4.6 15.4006 2 12.4995 2 8.99969ZM9 23.0001C8.4 23.0001 8 22.6002 8 22.0002H10C10 22.6002 9.6 23.0001 9 23.0001ZM12 19.0004C12 19.6003 11.6 20.0003 11 20.0003H7C6.4 20.0003 6 19.6003 6 19.0004V17.5005C6.9 17.8005 7.9 18.0004 9 18.0004C10.1 18.0004 11.1 17.8005 12 17.5005V19.0004Z" fill="white"/>
	</symbol>

</svg>