<svg width="20" height="20" viewBox="0 0 20 20" fill="none" xmlns="http://www.w3.org/2000/svg">
<path d="M20 9.00007H15.83L19.07 5.76001L17.66 4.33998L13 9.00007H11V7.00006L15.66 2.33998L14.24 0.930071L11 4.16999V0H9V4.16999L5.76 0.930071L4.34 2.33998L9 7.00006V9.00007H7L2.34 4.33998L0.93 5.76001L4.17 9.00007H0V11.0001H4.17L0.93 14.24L2.34 15.66L7 11.0001H9V13.0001L4.34 17.66L5.76 19.0701L9 15.83V20H11V15.83L14.24 19.0701L15.66 17.66L11 13.0001V11.0001H13L17.66 15.66L19.07 14.24L15.83 11.0001H20V9.00007Z" fill="white"/>
</svg>
