<svg width="16" height="21" viewBox="0 0 16 21" fill="none" xmlns="http://www.w3.org/2000/svg">
<path d="M14 6.99964H13V4.99992C13 2.23997 10.76 0 8 0C5.24 0 3 2.23997 3 4.99992V6.99964H2C0.9 6.99964 0 7.89958 0 8.9995V19.0001C0 20.1001 0.9 21 2 21H14C15.1 21 16 20.1001 16 19.0001V8.9995C16 7.89958 15.1 6.99964 14 6.99964ZM8 16.0003C6.9 16.0003 6 15.1004 6 14.0005C6 12.8992 6.9 11.9993 8 11.9993C9.1 11.9993 10 12.8992 10 14.0005C10 15.1004 9.1 16.0003 8 16.0003ZM11.1 6.99964H4.9V4.99992C4.9 3.2899 6.29 1.89999 8 1.89999C9.71 1.89999 11.1 3.2899 11.1 4.99992V6.99964Z" fill="white"/>
</svg>
