<svg width="18" height="25" viewBox="0 0 18 25" fill="none" xmlns="http://www.w3.org/2000/svg">
<path d="M18 8.99969C18 4.00001 14 0 9 0C4 0 0 4.00001 0 8.99969C0 12.0995 1.6 14.9006 4 16.5005V19.0004C4 20.3003 4.8 21.4002 6 21.8002V22.0002C6 23.7001 7.3 25 9 25C10.7 25 12 23.7001 12 22.0002V21.8002C13.2 21.4002 14 20.3003 14 19.0004V16.5005C16.4 14.9006 18 12.0995 18 8.99969ZM2 8.99969C2 5.10007 5.1 2 9 2C12.9 2 16 5.10007 16 8.99969C16 12.4995 13.4 15.4006 10 15.9006V13.3994L11.7 11.6995C12.1 11.2995 12.1 10.6996 11.7 10.2996C11.3 9.89963 10.7 9.89963 10.3 10.2996L9 11.5995L7.7 10.2996C7.3 9.89963 6.7 9.89963 6.3 10.2996C5.9 10.6996 5.9 11.2995 6.3 11.6995L8 13.3994V15.9006C4.6 15.4006 2 12.4995 2 8.99969ZM9 23.0001C8.4 23.0001 8 22.6002 8 22.0002H10C10 22.6002 9.6 23.0001 9 23.0001ZM12 19.0004C12 19.6003 11.6 20.0003 11 20.0003H7C6.4 20.0003 6 19.6003 6 19.0004V17.5005C6.9 17.8005 7.9 18.0004 9 18.0004C10.1 18.0004 11.1 17.8005 12 17.5005V19.0004Z" fill="white"/>
</svg>
